<svg width="60" height="60" viewBox="0 0 60 60" fill="none" xmlns="http://www.w3.org/2000/svg">
<g clip-path="url(#clip0_1_1752)">
<mask id="mask0_1_1752" style="mask-type:luminance" maskUnits="userSpaceOnUse" x="0" y="0" width="60" height="60">
<path d="M59.305 0H0V59.305H59.305V0Z" fill="white"/>
</mask>
<g mask="url(#mask0_1_1752)">
<path d="M37.7143 4.28564H29.1429L18.8571 14.5714L24 17.5714L29.1429 12.4285L39.8571 23.1428L43.7143 27.8571L49.2857 28.7142L51.8571 23.9999V7.71422L47.5714 4.28564H37.7143Z" fill="#FDC040"/>
<path d="M55.3668 12.3328H53.048L53.0502 8.18732C53.0516 5.40423 50.7888 3.13876 48.0052 3.13739L30.4063 3.12744H30.4041C29.4023 3.12744 28.4603 3.51747 27.7517 4.22602L1.47819 30.4995C0.524855 31.4529 0 32.7202 0 34.0686C0 35.4169 0.524855 36.6842 1.47819 37.6376L18.5288 54.6882C19.5129 55.6723 20.8055 56.1641 22.0977 56.1641C23.3905 56.1641 24.6831 55.6723 25.6672 54.6882L42.2092 38.1462C42.6617 37.6937 42.6617 36.9602 42.2092 36.5083C41.7567 36.0558 41.0233 36.0558 40.5709 36.5083L24.0289 53.0503C22.9642 54.1149 21.2318 54.1149 20.1671 53.0503L3.11655 35.9997C2.60075 35.4839 2.3166 34.7979 2.3166 34.0686C2.3166 33.3392 2.60075 32.6533 3.11655 32.1374L29.3896 5.86438C29.6607 5.59336 30.0208 5.44404 30.4041 5.44404H30.405L48.0039 5.454C49.5097 5.45445 50.7345 6.68062 50.7336 8.18641L50.7282 17.8927H45.5109C45.0615 17.8927 44.6547 17.7089 44.3607 17.413C44.8453 17.2053 45.2996 16.9053 45.6945 16.5103C47.3591 14.8453 47.3591 12.1369 45.6945 10.4723C44.0295 8.8072 41.3211 8.8072 39.656 10.4723C37.9914 12.1369 37.9914 14.8453 39.656 16.5103C40.2731 17.1275 41.0342 17.5153 41.8319 17.675C42.3988 19.155 43.8336 20.2093 45.5109 20.2093H50.7268L50.7237 25.7618C50.7237 26.1451 50.5743 26.5048 50.3033 26.7753L47.1234 29.9557C46.6709 30.4081 46.6709 31.1416 47.1234 31.5941C47.5755 32.0461 48.3088 32.0461 48.7613 31.5941L51.9417 28.4137C52.6493 27.7056 53.0398 26.7645 53.0403 25.7632L53.0434 20.2093H55.3668C57.5382 20.2093 59.305 18.4429 59.305 16.271C59.305 14.0996 57.5382 12.3328 55.3668 12.3328ZM41.2943 12.1102C41.6753 11.7292 42.1753 11.5392 42.6757 11.5392C43.1757 11.5392 43.6756 11.7296 44.0566 12.1102C44.177 12.231 44.2765 12.3644 44.3589 12.5052C43.0875 12.8947 42.0885 13.9123 41.7233 15.1946C41.5699 15.1091 41.4247 15.0027 41.2943 14.8724C40.5328 14.1105 40.5328 12.8717 41.2943 12.1102ZM55.3668 17.8927H53.0448L53.0466 14.6494H55.3668C56.2609 14.6494 56.9884 15.3769 56.9884 16.271C56.9884 17.165 56.2609 17.8927 55.3668 17.8927Z" fill="#3BB77E"/>
<path d="M18.6966 32.3519C18.8391 32.8644 19.3047 33.1998 19.8115 33.1998C19.9147 33.1998 20.0192 33.1862 20.1228 33.1572L32.0135 29.8475C32.6297 29.676 32.9903 29.0371 32.8189 28.4208C32.6474 27.8051 32.009 27.4445 31.3923 27.6159L19.5015 30.9252C18.8858 31.0972 18.5252 31.7356 18.6966 32.3519Z" fill="#3BB77E"/>
<path d="M23.9307 33.8805C23.2854 34.5258 22.9303 35.3832 22.9303 36.2958C22.9303 37.2079 23.2854 38.0653 23.9307 38.7106C24.5967 39.3762 25.4709 39.7092 26.3454 39.7092C27.22 39.7092 28.0947 39.3762 28.7607 38.7106C30.0922 37.3789 30.0922 35.2121 28.7607 33.8805C27.4291 32.5489 25.2622 32.5489 23.9307 33.8805ZM27.1223 37.0722C26.6938 37.5007 25.9971 37.5007 25.5686 37.0722C25.3609 36.865 25.2469 36.589 25.2469 36.2953C25.2469 36.0021 25.3613 35.7261 25.5686 35.5184C25.783 35.3044 26.0644 35.1972 26.3454 35.1972C26.6269 35.1972 26.9083 35.3044 27.1223 35.5184C27.5508 35.9469 27.5508 36.6442 27.1223 37.0722Z" fill="#3BB77E"/>
<path d="M29.3344 26.9842C30.666 25.6522 30.666 23.4858 29.3344 22.1542C28.6893 21.509 27.8313 21.1538 26.9192 21.1538C26.007 21.1538 25.1492 21.509 24.5044 22.1542C23.1729 23.4858 23.1729 25.6522 24.5044 26.9842C25.1704 27.6498 26.0446 27.9827 26.9192 27.9827C27.7938 27.9827 28.6684 27.6498 29.3344 26.9842ZM26.1423 23.7921C26.35 23.5844 26.626 23.4704 26.9192 23.4704C27.2128 23.4704 27.4888 23.5844 27.6961 23.7921C28.1246 24.2206 28.1246 24.9174 27.6961 25.3458C27.268 25.7743 26.5708 25.7743 26.1423 25.3458C25.7143 24.9174 25.7143 24.2206 26.1423 23.7921Z" fill="#3BB77E"/>
<path d="M11.5204 29.9585C11.068 29.506 10.3346 29.506 9.88209 29.9585L6.59088 33.2497C6.3737 33.4669 6.25154 33.7614 6.25154 34.0686C6.25154 34.3759 6.3737 34.6704 6.59088 34.8876L21.2792 49.5758C21.5049 49.8016 21.8018 49.9148 22.0981 49.9148C22.3945 49.9148 22.6908 49.8016 22.9171 49.5758L44.8777 27.6147C45.3302 27.1622 45.3302 26.4288 44.8777 25.9764L30.1899 11.2886C29.9727 11.0714 29.6781 10.9492 29.3709 10.9492C29.0637 10.9492 28.7691 11.0714 28.552 11.2886L16.4346 23.4059C15.9822 23.8584 15.9822 24.5918 16.4346 25.0442C16.8867 25.4963 17.6201 25.4963 18.0725 25.0442L29.3709 13.7459L42.4209 26.7957L22.0981 47.1185L9.04818 34.0686L11.5204 31.5964C11.9725 31.1439 11.9729 30.4109 11.5204 29.9585Z" fill="#3BB77E"/>
<path d="M44.6665 32.8926C44.3615 32.8926 44.0629 33.0165 43.8475 33.2319C43.6322 33.4473 43.5081 33.7464 43.5081 34.0508C43.5081 34.3554 43.6322 34.6544 43.8475 34.8698C44.0629 35.0852 44.3615 35.2092 44.6665 35.2092C44.971 35.2092 45.2696 35.0852 45.4854 34.8698C45.7008 34.6544 45.8247 34.3554 45.8247 34.0508C45.8247 33.7464 45.7008 33.4473 45.4854 33.2319C45.2696 33.0165 44.971 32.8926 44.6665 32.8926Z" fill="#3BB77E"/>
<path d="M14.7958 28.3195C15.0126 28.1042 15.1357 27.8065 15.1357 27.5006C15.1357 27.1961 15.0126 26.8984 14.7958 26.6816C14.5805 26.4663 14.2827 26.3423 13.9773 26.3423C13.6724 26.3423 13.3737 26.4663 13.1584 26.6816C12.9426 26.897 12.8191 27.1961 12.8191 27.5006C12.8191 27.8065 12.9426 28.1042 13.1584 28.3195C13.3747 28.5363 13.6724 28.6589 13.9773 28.6589C14.2827 28.6589 14.5805 28.5363 14.7958 28.3195Z" fill="#3BB77E"/>
</g>
</g>
<defs>
<clipPath id="clip0_1_1752">
<rect width="60" height="60" fill="white"/>
</clipPath>
</defs>
</svg>
