<svg width="60" height="60" viewBox="0 0 60 60" fill="none" xmlns="http://www.w3.org/2000/svg">
<g clip-path="url(#clip0_1_1807)">
<g clip-path="url(#clip1_1_1807)">
<g clip-path="url(#clip2_1_1807)">
<mask id="mask0_1_1807" style="mask-type:luminance" maskUnits="userSpaceOnUse" x="0" y="0" width="60" height="60">
<path d="M59.7916 0H0.486572V59.305H59.7916V0Z" fill="white"/>
</mask>
<g mask="url(#mask0_1_1807)">
<path d="M44.0168 55.9459C43.4162 55.9459 42.9224 56.4029 42.8641 56.9881H34.1476L32.7725 48.7076L34.3009 47.1792C34.5181 46.962 34.6402 46.6673 34.6402 46.3602C34.6402 46.053 34.5181 45.7584 34.3009 45.5411L32.9485 44.1887H35.2595C37.7957 44.1887 40.1557 45.4475 41.5722 47.5561C41.929 48.0871 42.6487 48.2282 43.1795 47.8717C43.7105 47.5148 43.8518 46.7952 43.4951 46.2641C41.662 43.5356 38.6169 41.8989 35.3374 41.8732C36.4595 40.6306 37.1439 38.9856 37.1439 37.1835V35.4847C37.1439 31.6219 34.0014 28.4795 30.1387 28.4795C26.276 28.4795 23.1335 31.6219 23.1335 35.4847V37.1835C23.1335 38.9861 23.8182 40.6313 24.9406 41.8741C19.5089 41.916 15.1025 46.3461 15.1025 51.7876V58.1464C15.1025 58.7861 15.6211 59.3048 16.2609 59.3048H44.0165C44.6563 59.3048 45.1749 58.7861 45.1749 58.1464V57.1042C45.1751 56.4646 44.6565 55.9459 44.0168 55.9459ZM30.1523 48.0518L28.4606 46.3602L30.1523 44.6686L31.844 46.3602L30.1523 48.0518ZM29.5527 50.6796C29.7365 50.791 29.9441 50.8481 30.1522 50.8481C30.3602 50.8481 30.5679 50.7911 30.7516 50.6796L31.7993 56.9881H28.505L29.5527 50.6796ZM25.4504 35.4847C25.4504 32.8994 27.5536 30.7961 30.139 30.7961C32.7243 30.7961 34.8275 32.8993 34.8275 35.4847V37.1835C34.8275 39.7688 32.7243 41.8721 30.139 41.8721C27.5536 41.8721 25.4504 39.7688 25.4504 37.1835V35.4847ZM17.4194 51.7876C17.4194 47.5975 20.8283 44.1887 25.0183 44.1887H27.3557L26.0033 45.5411C25.7861 45.7584 25.6641 46.053 25.6641 46.3602C25.6641 46.6673 25.7861 46.962 26.0033 47.1792L27.5318 48.7076L26.1567 56.9881H17.4193L17.4194 51.7876Z" fill="#3BB77E"/>
<path d="M24 1.28564C24.3429 1.28564 32.1429 1.57136 36 1.71422V14.1428L24 13.7142V1.28564Z" fill="#FDC040"/>
<path d="M51.4286 1.71436L45.4286 12.8572H58.2857L52.2857 2.14293L51.4286 1.71436Z" fill="#FDC040"/>
<path d="M24 1.28564C24.3429 1.28564 32.1429 1.57136 36 1.71422V14.1428L24 13.7142V1.28564Z" stroke="black" stroke-width="0.857143" stroke-linecap="round" stroke-linejoin="round"/>
<path d="M51.4286 1.71436L45.4286 12.8572H58.2857L52.2857 2.14293L51.4286 1.71436Z" stroke="black" stroke-width="0.857143" stroke-linecap="round" stroke-linejoin="round"/>
<path d="M15.2995 7.40739C15.2995 3.32344 11.9769 0.000976562 7.89309 0.000976562C3.80927 0.000976562 0.486572 3.32356 0.486572 7.40739C0.486572 11.4912 3.80916 14.8138 7.89298 14.8138C11.9768 14.8138 15.2995 11.4913 15.2995 7.40739ZM2.80317 7.40739C2.80317 4.60094 5.08641 2.31758 7.89298 2.31758C10.6996 2.31758 12.9827 4.60094 12.9827 7.40739C12.9827 10.2138 10.6996 12.4972 7.89298 12.4972C5.08641 12.4972 2.80317 10.214 2.80317 7.40739Z" fill="#3BB77E"/>
<path d="M23.891 14.813H36.3874C37.0271 14.813 37.5457 14.2942 37.5457 13.6546V1.1583C37.5457 0.518687 37.0271 0 36.3874 0H23.891C23.2514 0 22.7328 0.518687 22.7328 1.1583V13.6546C22.7328 14.2942 23.2514 14.813 23.891 14.813ZM25.0494 2.31661H35.2291V12.4964H25.0494V2.31661Z" fill="#3BB77E"/>
<path d="M59.6364 12.6151L52.9528 1.03911C52.746 0.680734 52.3636 0.459961 51.9498 0.459961C51.5359 0.459961 51.1535 0.680734 50.9467 1.03911L44.2631 12.6151C44.0562 12.9736 44.0562 13.4151 44.2631 13.7735C44.47 14.1318 44.8524 14.3526 45.2662 14.3526H58.6333C59.0471 14.3526 59.4295 14.1318 59.6364 13.7735C59.8433 13.4151 59.8433 12.9736 59.6364 12.6151ZM47.2724 12.036L51.9496 3.93487L56.6269 12.036H47.2724Z" fill="#3BB77E"/>
<path d="M30.139 26.2057C30.7788 26.2057 31.2974 25.6869 31.2974 25.0473V21.7424L31.3442 21.8078C31.5704 22.1239 31.9261 22.2922 32.2872 22.2922C32.5205 22.2922 32.7561 22.2219 32.9604 22.0757C33.4806 21.7034 33.6005 20.9799 33.2282 20.4597L31.0811 17.4594C30.8636 17.1554 30.5128 16.9751 30.1392 16.9751C29.7655 16.9751 29.4147 17.1554 29.1972 17.4594L27.05 20.4597C26.6778 20.9799 26.7977 21.7034 27.3179 22.0757C27.8381 22.448 28.5615 22.3282 28.934 21.8079L28.9808 21.7424V25.0473C28.9808 25.6871 29.4993 26.2057 30.139 26.2057Z" fill="#3BB77E"/>
<path d="M20.6024 35.5868C20.6024 34.9471 20.0838 34.4284 19.4441 34.4284H9.05793V21.7424L9.1049 21.8078C9.3311 22.1239 9.68664 22.2922 10.0478 22.2922C10.2811 22.2922 10.5167 22.2219 10.721 22.0757C11.2412 21.7034 11.3611 20.9799 10.9888 20.4597L8.84167 17.4594C8.62413 17.1554 8.27343 16.9751 7.89976 16.9751C7.52609 16.9751 7.17536 17.1554 6.95783 17.4594L4.81069 20.4597C4.43841 20.9799 4.5583 21.7034 5.07849 22.0757C5.59857 22.448 6.32216 22.3282 6.69455 21.8079L6.74134 21.7424V35.5868C6.74134 36.2264 7.25992 36.745 7.89964 36.745H19.4441C20.0837 36.745 20.6024 36.2264 20.6024 35.5868Z" fill="#3BB77E"/>
<path d="M53.3205 17.4594C53.1029 17.1554 52.7522 16.9751 52.3786 16.9751C52.0049 16.9751 51.6542 17.1554 51.4366 17.4594L49.2895 20.4597C48.9172 20.9799 49.0371 21.7034 49.5573 22.0757C50.0775 22.448 50.8011 22.3282 51.1733 21.8079L51.2202 21.7424V34.4285H40.8341C40.1944 34.4285 39.6758 34.9472 39.6758 35.5868C39.6758 36.2264 40.1944 36.7451 40.8341 36.7451H52.3786C53.0182 36.7451 53.5368 36.2264 53.5368 35.5868V21.7424L53.5838 21.8079C53.81 22.124 54.1656 22.2923 54.5267 22.2923C54.76 22.2923 54.9956 22.222 55.1999 22.0758C55.7201 21.7035 55.84 20.9801 55.4678 20.4599L53.3205 17.4594Z" fill="#3BB77E"/>
<path d="M44.0165 53.0505C44.6562 53.0505 45.1748 52.5319 45.1748 51.8922C45.1748 51.2525 44.6562 50.7339 44.0165 50.7339C43.3767 50.7339 42.8582 51.2525 42.8582 51.8922C42.8582 52.5319 43.3767 53.0505 44.0165 53.0505Z" fill="#3BB77E"/>
</g>
</g>
</g>
</g>
<defs>
<clipPath id="clip0_1_1807">
<rect width="60" height="60" fill="white"/>
</clipPath>
<clipPath id="clip1_1_1807">
<rect width="60" height="60" fill="white"/>
</clipPath>
<clipPath id="clip2_1_1807">
<rect width="60" height="60" fill="white"/>
</clipPath>
</defs>
</svg>
