<svg width="60" height="60" viewBox="0 0 60 60" fill="none" xmlns="http://www.w3.org/2000/svg">
<g clip-path="url(#clip0_1_1832)">
<g clip-path="url(#clip1_1_1832)">
<mask id="mask0_1_1832" style="mask-type:luminance" maskUnits="userSpaceOnUse" x="0" y="0" width="60" height="60">
<path d="M59.8379 0H0.648682V59.1892H59.8379V0Z" fill="white"/>
</mask>
<g mask="url(#mask0_1_1832)">
<path d="M12.4286 14.1431V30.0002C15.4286 29.0002 22.8 28.8002 28.2857 36.0002C29.5714 38.7145 31.6286 45.0002 29.5714 48.4288L35.5714 51.8574V26.1431L12.4286 14.1431Z" fill="#FDC040"/>
<path d="M59.2386 12.8018L36.1865 0.143562C35.8401 -0.0465519 35.4202 -0.0465519 35.0738 0.143562L26.385 4.91448C26.2017 4.9628 26.0305 5.05493 25.8888 5.18724L12.0221 12.8018C11.6523 13.0045 11.4224 13.3928 11.4224 13.8151V29.1245C9.08326 29.8561 6.93959 31.1462 5.15722 32.929C0.511384 37.5744 -0.673104 44.6596 2.20977 50.5595C2.48974 51.133 3.18202 51.371 3.75552 51.0906C4.32947 50.8101 4.567 50.1179 4.28703 49.5444C1.83767 44.5314 2.84423 38.5114 6.79193 34.5638C9.26069 32.0949 12.5428 30.7352 16.0339 30.7352C19.5251 30.7352 22.8071 32.0949 25.2759 34.5638C27.7442 37.0321 29.104 40.3142 29.104 43.8053C29.104 47.2964 27.7442 50.5785 25.2755 53.0473C21.3278 56.9949 15.3078 58.0016 10.2948 55.5522C9.72132 55.2717 9.02901 55.5098 8.74906 56.0832C8.46864 56.6572 8.70621 57.3494 9.28015 57.6294C11.4292 58.6798 13.735 59.1901 16.024 59.1901C20.0173 59.1896 23.9573 57.6353 26.9106 54.682C28.2649 53.3277 29.3351 51.7652 30.0924 50.0668L35.0738 52.802C35.2472 52.8974 35.4387 52.9448 35.6302 52.9448C35.8216 52.9448 36.0136 52.8974 36.1865 52.802L59.2386 40.1444C59.6085 39.9411 59.8383 39.5528 59.8383 39.131V31.097C59.8383 30.4585 59.3208 29.9409 58.6823 29.9409C58.0438 29.9409 57.5262 30.4585 57.5262 31.097V38.4469L36.7898 49.8334V27.1551L43.6335 23.3971V29.3543C43.6335 29.7635 43.8493 30.1418 44.2011 30.3496C44.3826 30.4567 44.5859 30.5103 44.7895 30.5103C44.981 30.5103 45.1729 30.4629 45.3467 30.3672L50.2865 27.6482C50.656 27.445 50.8849 27.0572 50.8849 26.6359V19.4151L57.5262 15.7686V21.8491C57.5262 22.4876 58.0438 23.0052 58.6823 23.0052C59.3208 23.0052 59.8383 22.4876 59.8383 21.8491V13.8151C59.8383 13.3933 59.6085 13.0045 59.2386 12.8018ZM35.6302 2.47551L56.2804 13.8151L49.7663 17.392L29.1161 6.05246L35.6302 2.47551ZM35.6302 25.1542L14.98 13.8151L21.7328 10.1067L42.3835 21.4459L35.6302 25.1542ZM44.785 20.1272L24.1348 8.7881L26.7142 7.37152L47.3648 18.7106L44.785 20.1272ZM26.9106 32.929C24.0052 30.0236 20.1424 28.4236 16.0339 28.4236C15.2567 28.4236 14.4891 28.481 13.7345 28.5934V15.7686L34.4782 27.1592V49.8374L30.8777 47.8604C31.2323 46.5554 31.4156 45.1943 31.4156 43.8053C31.4156 39.6968 29.8157 35.834 26.9106 32.929ZM48.5733 25.9526L45.9455 27.399V22.1277L48.5733 20.6849V25.9526Z" fill="#3BB77E"/>
<path d="M58.6819 25.3105C58.378 25.3105 58.0795 25.4343 57.8646 25.6493C57.6496 25.8642 57.5259 26.1623 57.5259 26.4666C57.5259 26.7705 57.6496 27.0685 57.8646 27.2835C58.0795 27.4989 58.378 27.6222 58.6819 27.6222C58.9858 27.6222 59.2843 27.4989 59.4993 27.2835C59.7142 27.0685 59.838 26.7705 59.838 26.4666C59.838 26.1623 59.7142 25.8642 59.4993 25.6493C59.2843 25.4343 58.9858 25.3105 58.6819 25.3105Z" fill="#3BB77E"/>
<path d="M12.1463 44.9604C12.4421 44.9604 12.7383 44.8475 12.9637 44.6222C13.4152 44.1705 13.4152 43.4385 12.9637 42.987L12.163 42.1859H18.9954C20.6527 42.1859 22.001 43.5343 22.001 45.1916C22.001 46.8488 20.6527 48.1973 18.9954 48.1973H14.9469C14.3084 48.1973 13.7909 48.7148 13.7909 49.3533C13.7909 49.9914 14.3084 50.5089 14.9469 50.5089H18.9954C21.9275 50.5089 24.3132 48.1237 24.3132 45.1916C24.3132 42.2594 21.9275 39.8743 18.9954 39.8743H12.163L12.9637 39.0731C13.4152 38.6216 13.4152 37.8896 12.9637 37.438C12.5125 36.9868 11.7805 36.9868 11.3289 37.438L8.55441 40.2125C8.10328 40.664 8.10328 41.396 8.55441 41.8477L11.3289 44.6216C11.5547 44.8475 11.8505 44.9604 12.1463 44.9604Z" fill="#3BB77E"/>
<path d="M5.975 55.0216C5.64625 55.0216 5.31975 54.8816 5.09171 54.6102L5.08946 54.6075C4.67852 54.1189 4.74174 53.39 5.23034 52.9791C5.71895 52.5677 6.44825 52.631 6.85919 53.1195C7.26967 53.6086 7.20781 54.3388 6.71919 54.7497C6.50198 54.9322 6.23781 55.0216 5.975 55.0216Z" fill="#3BB77E"/>
</g>
</g>
</g>
<defs>
<clipPath id="clip0_1_1832">
<rect width="60" height="60" fill="white"/>
</clipPath>
<clipPath id="clip1_1_1832">
<rect width="60" height="60" fill="white"/>
</clipPath>
</defs>
</svg>
