<svg width="60" height="60" viewBox="0 0 60 60" fill="none" xmlns="http://www.w3.org/2000/svg">
<g clip-path="url(#clip0_1_1791)">
<g clip-path="url(#clip1_1_1791)">
<mask id="mask0_1_1791" style="mask-type:luminance" maskUnits="userSpaceOnUse" x="0" y="0" width="60" height="60">
<path d="M59.6294 0H0.324341V59.305H59.6294V0Z" fill="white"/>
</mask>
<g mask="url(#mask0_1_1791)">
<path d="M40.2857 57.4284C48.8067 57.4284 55.7143 50.5208 55.7143 41.9999C55.7143 33.4789 48.8067 26.5713 40.2857 26.5713C31.7647 26.5713 24.8571 33.4789 24.8571 41.9999C24.8571 50.5208 31.7647 57.4284 40.2857 57.4284Z" fill="#FDC040"/>
<path d="M43.4068 25.6726V14.4494C43.4068 14.1281 43.2584 13.8313 43.0485 13.5964L30.4656 0.383235C30.2307 0.136191 29.8968 0 29.5633 0H9.61343C5.93037 0 2.98846 3.00344 2.98846 6.68693V44.4109C2.98846 48.0944 5.93037 51.0485 9.61343 51.0485H25.3609C28.3394 55.9926 33.7536 59.305 39.9211 59.305C49.2902 59.305 56.9414 51.691 56.9414 42.3097C56.954 34.1147 51.0702 27.2672 43.4068 25.6726ZM30.7994 4.33865L39.2415 13.2255H33.7658C32.1343 13.2255 30.7994 11.8785 30.7994 10.2469V4.33865ZM9.61343 48.5763C7.30223 48.5763 5.46071 46.7221 5.46071 44.4109V6.68693C5.46071 4.36309 7.30223 2.47225 9.61343 2.47225H28.3272V10.2469C28.3272 13.2503 30.7623 15.6977 33.7658 15.6977H40.9346V25.3509C40.564 25.3388 40.2672 25.3017 39.946 25.3017C35.6322 25.3017 31.6645 26.9581 28.6734 29.5539H12.9757C12.2956 29.5539 11.7395 30.11 11.7395 30.7895C11.7395 31.4696 12.2956 32.0257 12.9757 32.0257H26.3743C25.4966 33.2618 24.7672 34.4979 24.1989 35.8575H12.9757C12.2956 35.8575 11.7395 36.4137 11.7395 37.0937C11.7395 37.7733 12.2956 38.3298 12.9757 38.3298H23.3953C23.0863 39.566 22.9257 40.9378 22.9257 42.3097C22.9257 44.5344 23.3583 46.7348 24.1369 48.5889H9.61343V48.5763ZM39.9338 56.8455C31.9243 56.8455 25.4102 50.3313 25.4102 42.3219C25.4102 34.3125 31.9116 27.7983 39.9338 27.7983C47.9554 27.7983 54.4568 34.3125 54.4568 42.3219C54.4568 50.3313 47.9432 56.8455 39.9338 56.8455Z" fill="#3BB77E"/>
<path d="M12.9758 25.8331H25.4967C26.1768 25.8331 26.7329 25.2766 26.7329 24.597C26.7329 23.917 26.1768 23.3608 25.4967 23.3608H12.9758C12.2957 23.3608 11.7397 23.917 11.7397 24.597C11.7397 25.2766 12.2957 25.8331 12.9758 25.8331Z" fill="#3BB77E"/>
<path d="M39.5255 34.6955C39.6246 34.72 39.7233 34.7327 39.8224 34.7327C39.9459 34.7327 40.0572 34.72 40.1685 34.6829C41.8001 34.8191 43.0733 36.1787 43.0733 37.8352C43.0733 38.5148 43.6294 39.0708 44.309 39.0708C44.9891 39.0708 45.5451 38.5148 45.5451 37.8352C45.5451 35.1159 43.6172 32.8414 41.0585 32.3098V31.5188C41.0585 30.8387 40.502 30.2827 39.8224 30.2827C39.1423 30.2827 38.5862 30.8387 38.5862 31.5188V32.3595C36.114 32.9527 34.2725 35.1901 34.2725 37.8352C34.2725 40.9499 36.8063 43.4715 39.9088 43.4715C41.6517 43.4715 43.0733 44.8927 43.0733 46.6355C43.0733 48.3785 41.6639 49.8123 39.9088 49.8123C38.1659 49.8123 36.7447 48.3906 36.7447 46.6478C36.7447 45.9682 36.1882 45.4116 35.5086 45.4116C34.8286 45.4116 34.2725 45.9682 34.2725 46.6478C34.2725 49.3055 36.114 51.5303 38.5862 52.1235V53.3967C38.5862 54.0767 39.1423 54.6329 39.8224 54.6329C40.502 54.6329 41.0585 54.0767 41.0585 53.3967V52.1606C43.6172 51.6289 45.5451 49.3548 45.5451 46.6355C45.5451 43.5209 43.0113 40.9992 39.9088 40.9992C38.1659 40.9992 36.7447 39.5777 36.7447 37.8352C36.7447 36.228 37.9559 34.8811 39.5255 34.6955Z" fill="#3BB77E"/>
</g>
</g>
</g>
<defs>
<clipPath id="clip0_1_1791">
<rect width="60" height="60" fill="white"/>
</clipPath>
<clipPath id="clip1_1_1791">
<rect width="60" height="60" fill="white"/>
</clipPath>
</defs>
</svg>
