<svg width="60" height="60" viewBox="0 0 60 60" fill="none" xmlns="http://www.w3.org/2000/svg">
<g clip-path="url(#clip0_1_1771)">
<g clip-path="url(#clip1_1_1771)">
<mask id="mask0_1_1771" style="mask-type:luminance" maskUnits="userSpaceOnUse" x="0" y="0" width="60" height="60">
<path d="M59.4672 0H0.16217V59.305H59.4672V0Z" fill="white"/>
</mask>
<g mask="url(#mask0_1_1771)">
<path d="M38.1428 28.2857L41.1428 23.5714L45.4285 21.4286C46 21.2857 47.2285 21.0857 47.5714 21.4286C47.9143 21.7714 52.8571 28.4286 55.2857 31.7143L57.4285 35.5714C57 36.4286 56.0571 38.2286 55.7143 38.5714C55.3714 38.9143 52.1428 40.4286 50.5714 41.1429C49.7143 41.2857 47.9143 41.5714 47.5714 41.5714C47.2285 41.5714 43.1428 36.1429 41.1428 33.4286L38.8928 29.5714L38.1428 28.2857Z" fill="#FDC040"/>
<path d="M47.5714 41.5713C47.2286 41.5713 43.1428 36.1427 41.1428 33.4284L38.8928 29.5713H37.2857H33C32.5714 29.5713 30.4286 30.4284 29.5714 30.857L27 32.1427C26.1428 32.5713 25.2857 33.4284 24.8571 33.857C24.4286 34.2856 23.5714 35.5713 23.5714 35.9999C23.5714 36.4284 23.5714 37.2856 24 37.7141C24.4286 38.1427 25.2857 38.5713 25.7143 38.5713H28.2857C28.9714 38.5713 30.8571 37.7141 31.7143 37.2856C32 37.4285 32.6571 37.7999 33 38.1427C33.3428 38.4856 36.2857 40.5713 37.7143 41.5713L41.1428 44.9999C41.7143 45.2855 42.9428 45.7713 43.2857 45.4284C43.6286 45.0856 44.8571 44.1427 45.4286 43.7141L46.7143 42.857L47.5714 41.5713Z" fill="#FDC040"/>
<path d="M13.2857 46.2859C13.2857 46.9716 14.4285 48.2859 15 48.8573L18 51.4287L19.7143 52.7145L21.4286 54.4287C22 54.7144 23.1428 55.3716 23.1428 55.7145C23.1428 56.0573 24.8571 56.4287 25.7143 56.5716C26.1428 56.2859 27.0857 55.6287 27.4286 55.2859C27.8571 54.8573 27.8571 54.8573 27.8571 54.0002C27.8571 53.143 27.8571 52.2859 27.4286 51.4287C27 50.5716 27 48.8573 26.5714 48.4287C26.1428 48.0002 24.4286 47.143 24.4286 46.7145C24.4286 46.2859 23.1428 44.5716 22.7143 44.143C22.2857 43.7145 21.4286 42.0002 21 41.5716C20.5714 41.143 19.2857 40.2859 18.4286 40.7145C17.5714 41.143 15 43.2859 14.5714 43.7145C14.2286 44.0573 13.5714 45.5716 13.2857 46.2859Z" fill="#FDC040"/>
<path d="M21.4286 4.28564C24 7.85708 31.3714 14.8285 40.2857 14.1428L38.5714 19.2856L36 21.4285L27.8571 23.9999L21.4286 21.8571L17.5714 14.9999L18 9.4285L20.1428 5.57136L21.4286 4.28564Z" fill="#FDC040"/>
<path d="M28.856 15.4068C28.4035 15.4068 27.8487 15.3406 27.4688 14.9173C27.3367 14.7686 27.221 14.6296 27.1088 14.5138C26.2038 13.5615 24.6449 14.8843 25.5895 16.1209L25.8174 16.4152C25.966 16.6006 26.2336 16.8154 26.6166 17.0602C26.9899 17.298 27.406 17.47 27.8684 17.5726V19.2063C27.8684 19.7684 28.3273 20.2313 28.889 20.2313C29.4538 20.2313 29.9326 19.7684 29.9326 19.2063V17.5627C30.6724 17.3909 31.3066 17.0303 31.825 16.4848C32.3467 15.939 32.6077 15.215 32.6077 14.3122C32.6077 13.6972 32.489 13.1847 32.251 12.7712C32.0133 12.3611 31.7226 12.0736 31.3758 11.9114C31.0258 11.7493 30.646 11.6071 30.2265 11.4849C29.8104 11.3626 29.4306 11.2765 29.0805 11.2237C28.7338 11.1739 28.4431 11.068 28.2052 10.9128C27.9674 10.7539 27.8486 10.549 27.8486 10.2943C27.8486 9.0775 29.632 9.22622 30.418 9.88759C31.5772 10.8631 32.8751 9.0775 31.531 8.06894L31.3757 7.92994C31.27 7.84747 31.0851 7.74484 30.8176 7.61581C30.5533 7.487 30.256 7.39098 29.9325 7.32148V6.33287V5.90303C29.9325 5.34079 29.4733 4.87793 28.9086 4.87793C28.3471 4.87793 27.8848 5.34068 27.8848 5.90303V7.30503C27.1317 7.45388 26.5075 7.82766 26.075 8.37971C25.639 8.94199 25.4177 9.56376 25.4177 10.2579C25.4177 10.9558 25.5797 11.5278 25.9032 11.9809C26.2269 12.4336 26.62 12.7512 27.0856 12.9364C27.548 13.1217 28.0102 13.2706 28.4727 13.3795C28.9383 13.4921 29.3314 13.6143 29.6549 13.7566C29.9787 13.8954 30.1405 14.0906 30.1405 14.3452C30.1406 15.0528 29.7113 15.4068 28.856 15.4068Z" fill="#3BB77E"/>
<path d="M58.2428 33.4572L48.7252 21.2663C48.0842 20.443 47.1122 19.9707 46.0587 19.9707C45.3152 19.9707 44.6113 20.2068 44.0205 20.655L37.7918 25.403C37.0789 25.9464 36.6234 26.7349 36.5092 27.6234C36.4922 27.7558 36.4841 27.8878 36.4827 28.0192C34.1082 27.8393 31.6556 28.0201 29.2737 29.5683L29.1669 29.6376L23.1416 28.7162C23.154 28.5076 23.1473 28.2965 23.1198 28.0846C23.0049 27.1983 22.5502 26.4115 21.8386 25.869L15.6084 21.1253C14.1487 20.009 12.0381 20.2802 10.9031 21.7314L8.63424 24.6381C8.23716 25.1466 8.32774 25.8806 8.83627 26.2775C9.34482 26.6745 10.0789 26.5839 10.4758 26.0754L12.744 23.1697C13.0874 22.7307 13.7492 22.6443 14.1912 22.9824L20.4229 27.7272C20.6339 27.8881 20.7689 28.1217 20.803 28.3851C20.8371 28.6488 20.7659 28.9099 20.6033 29.1187L11.084 41.3116C10.7429 41.7496 10.0802 41.8351 9.6389 41.5005L3.40994 36.7519C3.19774 36.5903 3.0621 36.3558 3.02816 36.0921C2.99446 35.8296 3.0657 35.5703 3.22959 35.3609L4.84797 33.2876C5.24492 32.7791 5.15446 32.0451 4.64585 31.6482C4.13736 31.251 3.40334 31.3417 3.00627 31.8503L1.38882 33.9223C0.837817 34.6267 0.597122 35.503 0.711099 36.3898C0.825191 37.278 1.28087 38.0666 1.99368 38.6099L8.22465 43.3601C8.83104 43.82 9.5477 44.0425 10.2596 44.0424C10.6714 44.0424 11.0811 43.9668 11.4674 43.8209L12.2738 44.9253C11.8355 45.7248 11.7672 46.6854 12.1195 47.6123C12.623 48.9377 13.811 49.8362 15.0964 49.879C15.1363 50.0678 15.1915 50.2565 15.2669 50.4433C15.785 51.7271 16.9681 52.6008 18.2393 52.6584C18.2451 52.6917 18.2495 52.7251 18.2564 52.7586C18.4982 53.934 19.4 54.9378 20.5535 55.3159C20.8473 55.4123 21.1436 55.4617 21.437 55.4705C21.5494 55.9437 21.7843 56.4008 22.1454 56.802C22.7082 57.4277 23.5298 57.828 24.4312 57.8278C25.0858 57.8278 25.7825 57.6154 26.4522 57.1259L27.7748 58.3623C28.4486 58.991 29.2967 59.3049 30.1367 59.3049C30.9888 59.3048 31.8322 58.9818 32.4764 58.3371C32.8604 57.9527 33.158 57.4953 33.3506 57.0138C33.6788 57.1135 33.9994 57.1608 34.307 57.1608C35.1734 57.1607 35.9378 56.7948 36.4856 56.2307C36.9338 55.7691 37.2546 55.1546 37.3964 54.4996C37.4438 54.502 37.4912 54.504 37.5388 54.5044C37.5506 54.5046 37.562 54.5046 37.5737 54.5046C38.495 54.5046 39.379 54.1476 40.0034 53.5224C40.4408 53.0846 40.7416 52.5457 40.8853 51.9572C41.1081 52.0007 41.3319 52.0234 41.5552 52.0234C41.8364 52.0234 42.1168 51.9885 42.3931 51.9177C43.5194 51.6291 44.3893 50.7487 44.663 49.6202C44.9156 48.5789 44.6553 47.4819 43.9468 46.4848C45.7813 45.0089 46.5233 44.2818 47.3613 42.9224C47.9337 43.3435 48.6306 43.5755 49.367 43.5755C50.1128 43.5755 50.818 43.3377 51.4044 42.8893L57.6371 38.1438C58.3481 37.6018 58.8029 36.8152 58.9178 35.9287C59.0327 35.0415 58.7934 34.164 58.2428 33.4572ZM15.7075 47.3033C15.5286 47.4649 15.355 47.547 15.1916 47.547C14.8562 47.547 14.4661 47.2114 14.3032 46.7827C14.1554 46.3934 14.2243 46.0681 14.5088 45.8155L14.5125 45.8123L14.516 45.8092L18.4513 42.3114C18.7805 42.0193 19.1118 41.865 19.4096 41.865C19.8453 41.865 20.1711 42.1958 20.2894 42.5035C20.4159 42.8321 20.3398 43.1253 20.0646 43.3742L19.3786 43.9928L19.3768 43.9944C19.3734 43.9974 19.3702 44.0004 19.3668 44.0034C19.3423 44.0256 19.3169 44.0485 19.2919 44.0712L15.7075 47.3033ZM18.8883 50.0952C18.711 50.2518 18.542 50.3278 18.372 50.3278C18.0174 50.3278 17.6052 49.9946 17.4334 49.5689C17.2441 49.1 17.4687 48.8835 17.5397 48.8149C17.5854 48.7712 17.6402 48.7187 17.6972 48.6576L17.6983 48.6566L17.7104 48.646C17.935 48.4452 19.9137 46.6574 20.8592 45.8032L20.9296 45.7397C21.25 45.4584 21.5745 45.3098 21.8686 45.3098C22.3324 45.3098 22.6777 45.6648 22.8022 45.9944C22.9261 46.3222 22.8518 46.6091 22.5824 46.8463L22.34 47.0594C22.3382 47.061 22.3364 47.0623 22.3347 47.064L22.333 47.0657L18.8883 50.0952ZM22.37 52.6164C22.3538 52.6308 22.3387 52.646 22.3231 52.6608L22.049 52.9081C21.8054 53.1282 21.5614 53.1882 21.2811 53.0962C20.9268 52.98 20.6174 52.64 20.5448 52.2879C20.4818 51.9817 20.6043 51.698 20.9155 51.4237L21.3052 51.0832C21.3151 51.0746 21.3236 51.0652 21.3331 51.0564L23.8862 48.8111C24.498 48.2702 25.1039 48.216 25.5072 48.6669C25.5639 48.7304 26.0449 49.3021 25.4577 49.8325L23.8898 51.2474C23.873 51.2622 23.8559 51.2755 23.8393 51.2907C23.8334 51.2962 23.8285 51.3024 23.8226 51.3078L22.3879 52.6024C22.3821 52.6074 22.3756 52.6112 22.37 52.6164ZM23.8822 55.2395C23.7591 55.1028 23.5216 54.7485 23.9112 54.3744L25.4754 52.963C25.5938 52.8618 25.7078 52.7814 25.8146 52.7263C25.8194 52.7238 25.8245 52.7212 25.8293 52.7187C26.4598 52.3819 26.8015 52.7745 26.8914 52.9027C27.0068 53.0676 27.1477 53.3916 26.7936 53.7097L25.722 54.673C25.7179 54.6766 25.7139 54.6803 25.7099 54.6839L25.2453 55.1014C24.4819 55.7867 24.0089 55.3806 23.8822 55.2395ZM42.3926 49.0696C42.3207 49.3655 42.1096 49.5787 41.8132 49.6548C41.3218 49.7805 40.6999 49.5077 40.1304 48.9234C40.0877 48.8761 40.0439 48.8296 39.9981 48.7845L35.589 44.426C35.13 43.9727 34.3904 43.9769 33.937 44.4357C33.4835 44.8944 33.4877 45.6341 33.9464 46.0875L38.3486 50.4389C38.3559 50.4467 38.3634 50.4543 38.3706 50.4621C38.5465 50.643 38.6443 50.8846 38.6454 51.1462C38.6464 51.4224 38.5417 51.68 38.3504 51.8716C38.1616 52.0607 37.8794 52.1685 37.5743 52.1685C37.57 52.1685 37.5658 52.1685 37.5615 52.1683C37.2914 52.1658 37.0449 52.0753 36.8714 51.9174C36.7983 51.823 36.7188 51.7314 36.6313 51.6435L33.4079 48.4162C32.952 47.9599 32.2124 47.9594 31.7559 48.4152C31.2995 48.871 31.2991 49.6105 31.7548 50.067L34.8117 53.1276C34.8486 53.1816 34.8895 53.2335 34.9364 53.2821L35.0666 53.4162C35.2341 53.7354 35.1302 54.273 34.8094 54.6036C34.3143 55.1134 33.6176 54.6639 33.1212 54.1977L31.7408 52.8982C31.271 52.456 30.5317 52.4784 30.0896 52.948C29.6474 53.4178 29.6696 54.1571 30.1394 54.5993L31.1939 55.5918C31.1965 55.5942 31.1985 55.5969 31.2011 55.5992C31.2252 55.6218 31.2614 55.6558 31.2632 55.7736C31.2678 56.0473 31.087 56.4227 30.8237 56.6862C30.4394 57.0708 29.8004 57.0571 29.3696 56.655L28.2136 55.5746L28.3549 55.4475C29.5011 54.4182 29.6861 52.8209 28.8048 51.5627C28.518 51.1532 28.1588 50.8351 27.7558 50.6144C28.3238 49.4942 28.165 48.1341 27.2482 47.1094C26.7311 46.5312 26.0006 46.1363 25.1851 46.0488C25.1618 45.7558 25.0976 45.4604 24.9877 45.1692C24.5909 44.1186 23.7088 43.3453 22.6707 43.0776C22.7139 42.6121 22.6496 42.1317 22.4699 41.6643C21.9782 40.3871 20.7486 39.5287 19.4096 39.5287C18.5317 39.5287 17.6643 39.8866 16.9004 40.5642L13.918 43.2151L13.2625 42.3174L22.1543 30.9285L26.2196 31.5503L25.6046 31.9493C22.3104 34.0866 22.0693 36.5722 22.9422 38.1858C23.6408 39.4775 25.035 40.2157 26.5149 40.2157C27.1242 40.2156 27.7483 40.0905 28.344 39.8273C28.3598 39.8202 28.3754 39.813 28.3907 39.8053L31.4704 38.2783L33.2482 39.8971C33.25 39.8987 33.2518 39.8999 33.2534 39.9014C33.2552 39.903 33.2566 39.9046 33.2583 39.9062L41.4756 47.2142C42.1796 47.8403 42.5225 48.5339 42.3926 49.0696ZM42.2943 44.8162L34.8159 38.1652L32.453 36.0138C32.0972 35.6896 31.5788 35.6169 31.1477 35.8308L27.3781 37.7C26.354 38.1405 25.3466 37.7214 24.9968 37.0746C24.5161 36.186 25.2361 34.973 26.876 33.9092L30.5461 31.5276C32.536 30.234 34.6235 30.1343 37.4791 30.4656L45.7476 41.0603C44.875 42.6272 44.4116 43.1246 42.2943 44.8162ZM56.601 35.6284C56.567 35.8914 56.4319 36.1249 56.2213 36.2855L49.9871 41.0321C49.7632 41.2034 49.5265 41.2393 49.3673 41.2393C49.0396 41.2392 48.7388 41.095 48.5428 40.8444L39.0268 28.6514C38.8637 28.4428 38.7925 28.1835 38.8262 27.921C38.8602 27.6572 38.9957 27.4226 39.208 27.2609L45.4348 22.5142C45.6608 22.3429 45.8986 22.3069 46.0586 22.3069C46.3866 22.3069 46.6867 22.4507 46.8829 22.7026L56.4004 34.8936C56.564 35.1037 56.6353 35.3646 56.601 35.6284Z" fill="#3BB77E"/>
<path d="M22.9609 23.7293C24.7948 24.7189 26.8664 25.2419 28.9519 25.2419C35.9041 25.2419 41.5604 19.5794 41.5604 12.6192C41.5604 7.76155 38.7245 3.28193 34.3365 1.20706C32.6461 0.406101 30.8345 0 28.9519 0C22.0011 0 16.3464 5.66097 16.3464 12.6192C16.3464 17.2601 18.8802 21.5169 22.9609 23.7293ZM28.9519 2.33607C30.4857 2.33607 31.9609 2.66653 33.337 3.31842C36.9133 5.00943 39.2242 8.66031 39.2242 12.6192C39.2242 18.2913 34.616 22.9059 28.9519 22.9059C27.2525 22.9059 25.5645 22.4796 24.0724 21.6746C20.7478 19.8719 18.6825 16.4021 18.6825 12.6192C18.6825 6.94911 23.2892 2.33607 28.9519 2.33607Z" fill="#3BB77E"/>
<path d="M6.0124 29.874C6.22749 30.0457 6.48476 30.1291 6.74027 30.1291C7.08337 30.1291 7.42333 29.9786 7.65394 29.6895L7.66715 29.673C8.06955 29.1688 7.98695 28.4338 7.48275 28.0314C6.97854 27.6293 6.24348 27.7115 5.84121 28.2159L5.828 28.2325C5.4256 28.7367 5.50819 29.4716 6.0124 29.874Z" fill="#3BB77E"/>
</g>
</g>
</g>
<defs>
<clipPath id="clip0_1_1771">
<rect width="60" height="60" fill="white"/>
</clipPath>
<clipPath id="clip1_1_1771">
<rect width="60" height="60" fill="white"/>
</clipPath>
</defs>
</svg>
