<svg width="15" height="15" viewBox="0 0 15 15" fill="none" xmlns="http://www.w3.org/2000/svg">
<path d="M12.7358 6.78567C12.7075 6.20956 12.5989 5.66178 12.41 5.14234C12.2211 4.62289 11.9614 4.14123 11.6308 3.69734C11.4419 3.89567 11.2247 4.10345 10.9792 4.32067C10.2992 4.88734 9.51528 5.35956 8.6275 5.73734C8.75028 5.99234 8.85889 6.22845 8.95333 6.44567L9.02417 6.644C10.0347 6.53067 11.135 6.55428 12.325 6.71484L12.7358 6.78567ZM6.09167 1.5015C6.22389 1.68095 6.36083 1.87928 6.5025 2.0965C6.96528 2.76706 7.38556 3.43761 7.76333 4.10817L8.00417 4.53317C8.83528 4.20261 9.55306 3.78234 10.1575 3.27234C10.3747 3.09289 10.5636 2.91345 10.7242 2.734C10.2236 2.31845 9.66639 1.99734 9.0525 1.77067C8.41972 1.53456 7.76333 1.4165 7.08333 1.4165C6.75278 1.4165 6.42222 1.44484 6.09167 1.5015ZM1.60083 5.6665C2.04472 5.65706 2.52639 5.62873 3.04583 5.5815C4.24528 5.46817 5.39278 5.27456 6.48833 5.00067C6.09167 4.30178 5.6525 3.59345 5.17083 2.87567C4.96306 2.564 4.76472 2.27123 4.57583 1.99734C3.83917 2.36567 3.20875 2.86859 2.68458 3.50609C2.16042 4.14359 1.79917 4.86373 1.60083 5.6665ZM2.6775 10.6532C2.98917 10.1998 3.36222 9.75123 3.79667 9.30734C4.89222 8.18345 6.11056 7.40428 7.45167 6.96984L7.49417 6.95567C7.37139 6.70067 7.25806 6.46928 7.15417 6.2615C5.9075 6.62039 4.56167 6.86595 3.11667 6.99817C2.50278 7.05484 1.93611 7.08317 1.41667 7.08317C1.41667 7.75373 1.53 8.39595 1.75667 9.00984C1.97389 9.60484 2.28083 10.1526 2.6775 10.6532ZM9.20833 12.339C9.13278 11.9234 9.03361 11.489 8.91083 11.0357C8.67472 10.0912 8.39139 9.17512 8.06083 8.28734C6.70083 8.77845 5.55806 9.50095 4.6325 10.4548C4.24528 10.8515 3.93361 11.2434 3.6975 11.6307C4.17917 11.9896 4.70806 12.2658 5.28417 12.4594C5.86028 12.653 6.46 12.7498 7.08333 12.7498C7.82 12.7498 8.52833 12.6129 9.20833 12.339ZM10.54 11.574C11.0878 11.149 11.5458 10.6414 11.9142 10.0511C12.2825 9.46081 12.5281 8.82095 12.6508 8.1315C12.3769 8.05595 12.0842 7.99928 11.7725 7.9615C10.9886 7.84817 10.2378 7.83873 9.52 7.93317C9.83167 8.80206 10.0961 9.68511 10.3133 10.5823C10.3983 10.9318 10.4739 11.2623 10.54 11.574ZM7.08333 14.1665C6.12 14.1665 5.19917 13.9823 4.32083 13.614C3.48028 13.2551 2.73181 12.7475 2.07542 12.0911C1.41903 11.4347 0.911389 10.6862 0.5525 9.84567C0.184167 8.96734 0 8.0465 0 7.08317C0 6.11984 0.184167 5.199 0.5525 4.32067C0.911389 3.48011 1.41903 2.73164 2.07542 2.07525C2.73181 1.41886 3.48028 0.911225 4.32083 0.552337C5.19917 0.184004 6.12 -0.000163078 7.08333 -0.000163078C8.04667 -0.000163078 8.9675 0.184004 9.84583 0.552337C10.6864 0.911225 11.4349 1.41886 12.0913 2.07525C12.7476 2.73164 13.2553 3.48011 13.6142 4.32067C13.9825 5.199 14.1667 6.11984 14.1667 7.08317C14.1667 8.0465 13.9825 8.96734 13.6142 9.84567C13.2553 10.6862 12.7476 11.4347 12.0913 12.0911C11.4349 12.7475 10.6864 13.2551 9.84583 13.614C8.9675 13.9823 8.04667 14.1665 7.08333 14.1665Z" fill="black"/>
</svg>
